<mxfile host="app.diagrams.net" modified="2023-06-23T19:26:40.646Z" agent="Mozilla/5.0 (Windows NT 10.0; Win64; x64) AppleWebKit/537.36 (KHTML, like Gecko) Chrome/114.0.0.0 Safari/537.36 Edg/114.0.1823.43" etag="67WgKilIXdTDIfRBnf5t" version="21.5.0" type="github">
  <diagram name="Page-1" id="JAsYkhxNpc9QepuXL1x3">
    <mxGraphModel dx="880" dy="507" grid="1" gridSize="10" guides="1" tooltips="1" connect="1" arrows="1" fold="1" page="1" pageScale="1" pageWidth="1169" pageHeight="827" math="0" shadow="0">
      <root>
        <mxCell id="0" />
        <mxCell id="1" parent="0" />
        <mxCell id="ypVziHgd2XEu-LRB_zmH-3" value="" style="edgeStyle=orthogonalEdgeStyle;rounded=0;orthogonalLoop=1;jettySize=auto;html=1;exitX=0.5;exitY=1;exitDx=0;exitDy=0;labelBackgroundColor=none;strokeColor=#A8201A;fontColor=default;" edge="1" parent="1" source="ypVziHgd2XEu-LRB_zmH-1" target="ypVziHgd2XEu-LRB_zmH-2">
          <mxGeometry relative="1" as="geometry" />
        </mxCell>
        <mxCell id="ypVziHgd2XEu-LRB_zmH-5" value="" style="edgeStyle=orthogonalEdgeStyle;rounded=0;orthogonalLoop=1;jettySize=auto;html=1;exitX=0.5;exitY=1;exitDx=0;exitDy=0;labelBackgroundColor=none;strokeColor=#A8201A;fontColor=default;" edge="1" parent="1" source="ypVziHgd2XEu-LRB_zmH-1" target="ypVziHgd2XEu-LRB_zmH-4">
          <mxGeometry relative="1" as="geometry" />
        </mxCell>
        <mxCell id="ypVziHgd2XEu-LRB_zmH-7" value="" style="edgeStyle=orthogonalEdgeStyle;rounded=0;orthogonalLoop=1;jettySize=auto;html=1;exitX=0.5;exitY=1;exitDx=0;exitDy=0;labelBackgroundColor=none;strokeColor=#A8201A;fontColor=default;" edge="1" parent="1" source="ypVziHgd2XEu-LRB_zmH-1" target="ypVziHgd2XEu-LRB_zmH-6">
          <mxGeometry relative="1" as="geometry" />
        </mxCell>
        <mxCell id="ypVziHgd2XEu-LRB_zmH-9" value="" style="edgeStyle=orthogonalEdgeStyle;rounded=0;orthogonalLoop=1;jettySize=auto;html=1;exitX=0.5;exitY=1;exitDx=0;exitDy=0;labelBackgroundColor=none;strokeColor=#A8201A;fontColor=default;" edge="1" parent="1" source="ypVziHgd2XEu-LRB_zmH-1" target="ypVziHgd2XEu-LRB_zmH-8">
          <mxGeometry relative="1" as="geometry" />
        </mxCell>
        <mxCell id="ypVziHgd2XEu-LRB_zmH-1" value="Battery Reliability" style="rounded=0;whiteSpace=wrap;html=1;labelBackgroundColor=none;fillColor=#FAE5C7;strokeColor=#0F8B8D;fontColor=#143642;" vertex="1" parent="1">
          <mxGeometry x="380" y="230" width="120" height="60" as="geometry" />
        </mxCell>
        <mxCell id="ypVziHgd2XEu-LRB_zmH-2" value="Manufacturing criteria" style="whiteSpace=wrap;html=1;rounded=0;labelBackgroundColor=none;fillColor=#FAE5C7;strokeColor=#0F8B8D;fontColor=#143642;" vertex="1" parent="1">
          <mxGeometry x="300" y="370" width="120" height="60" as="geometry" />
        </mxCell>
        <mxCell id="ypVziHgd2XEu-LRB_zmH-4" value="Assembly process" style="whiteSpace=wrap;html=1;rounded=0;labelBackgroundColor=none;fillColor=#FAE5C7;strokeColor=#0F8B8D;fontColor=#143642;" vertex="1" parent="1">
          <mxGeometry x="460" y="370" width="120" height="60" as="geometry" />
        </mxCell>
        <mxCell id="ypVziHgd2XEu-LRB_zmH-6" value="Detailed FMEA" style="rounded=0;whiteSpace=wrap;html=1;labelBackgroundColor=none;fillColor=#FAE5C7;strokeColor=#0F8B8D;fontColor=#143642;" vertex="1" parent="1">
          <mxGeometry x="140" y="370" width="120" height="60" as="geometry" />
        </mxCell>
        <mxCell id="ypVziHgd2XEu-LRB_zmH-8" value="Operating conditions" style="whiteSpace=wrap;html=1;rounded=0;labelBackgroundColor=none;fillColor=#FAE5C7;strokeColor=#0F8B8D;fontColor=#143642;" vertex="1" parent="1">
          <mxGeometry x="620" y="370" width="120" height="60" as="geometry" />
        </mxCell>
        <mxCell id="ypVziHgd2XEu-LRB_zmH-11" value="" style="edgeStyle=orthogonalEdgeStyle;rounded=0;orthogonalLoop=1;jettySize=auto;html=1;exitX=0.5;exitY=1;exitDx=0;exitDy=0;labelBackgroundColor=none;strokeColor=#A8201A;fontColor=default;" edge="1" source="ypVziHgd2XEu-LRB_zmH-15" target="ypVziHgd2XEu-LRB_zmH-16" parent="1">
          <mxGeometry relative="1" as="geometry" />
        </mxCell>
        <mxCell id="ypVziHgd2XEu-LRB_zmH-12" value="" style="edgeStyle=orthogonalEdgeStyle;rounded=0;orthogonalLoop=1;jettySize=auto;html=1;exitX=0.5;exitY=1;exitDx=0;exitDy=0;labelBackgroundColor=none;strokeColor=#A8201A;fontColor=default;" edge="1" source="ypVziHgd2XEu-LRB_zmH-15" target="ypVziHgd2XEu-LRB_zmH-17" parent="1">
          <mxGeometry relative="1" as="geometry" />
        </mxCell>
        <mxCell id="ypVziHgd2XEu-LRB_zmH-13" value="" style="edgeStyle=orthogonalEdgeStyle;rounded=0;orthogonalLoop=1;jettySize=auto;html=1;exitX=0.5;exitY=1;exitDx=0;exitDy=0;labelBackgroundColor=none;strokeColor=#A8201A;fontColor=default;" edge="1" source="ypVziHgd2XEu-LRB_zmH-15" target="ypVziHgd2XEu-LRB_zmH-18" parent="1">
          <mxGeometry relative="1" as="geometry" />
        </mxCell>
        <mxCell id="ypVziHgd2XEu-LRB_zmH-14" value="" style="edgeStyle=orthogonalEdgeStyle;rounded=0;orthogonalLoop=1;jettySize=auto;html=1;exitX=0.5;exitY=1;exitDx=0;exitDy=0;labelBackgroundColor=none;strokeColor=#A8201A;fontColor=default;" edge="1" source="ypVziHgd2XEu-LRB_zmH-15" target="ypVziHgd2XEu-LRB_zmH-19" parent="1">
          <mxGeometry relative="1" as="geometry" />
        </mxCell>
        <mxCell id="ypVziHgd2XEu-LRB_zmH-15" value="Battery Reliability" style="rounded=0;whiteSpace=wrap;html=1;labelBackgroundColor=none;fillColor=#FAE5C7;strokeColor=#0F8B8D;fontColor=#143642;" vertex="1" parent="1">
          <mxGeometry x="380" y="230" width="120" height="60" as="geometry" />
        </mxCell>
        <mxCell id="ypVziHgd2XEu-LRB_zmH-16" value="Manufacturing criteria" style="whiteSpace=wrap;html=1;rounded=0;labelBackgroundColor=none;fillColor=#FAE5C7;strokeColor=#0F8B8D;fontColor=#143642;" vertex="1" parent="1">
          <mxGeometry x="300" y="370" width="120" height="60" as="geometry" />
        </mxCell>
        <mxCell id="ypVziHgd2XEu-LRB_zmH-17" value="Assembly process" style="whiteSpace=wrap;html=1;rounded=0;labelBackgroundColor=none;fillColor=#FAE5C7;strokeColor=#0F8B8D;fontColor=#143642;" vertex="1" parent="1">
          <mxGeometry x="460" y="370" width="120" height="60" as="geometry" />
        </mxCell>
        <mxCell id="ypVziHgd2XEu-LRB_zmH-18" value="Detailed FMEA" style="rounded=0;whiteSpace=wrap;html=1;labelBackgroundColor=none;fillColor=#FAE5C7;strokeColor=#0F8B8D;fontColor=#143642;" vertex="1" parent="1">
          <mxGeometry x="140" y="370" width="120" height="60" as="geometry" />
        </mxCell>
        <mxCell id="ypVziHgd2XEu-LRB_zmH-19" value="Operating conditions" style="whiteSpace=wrap;html=1;rounded=0;labelBackgroundColor=none;fillColor=#FAE5C7;strokeColor=#0F8B8D;fontColor=#143642;" vertex="1" parent="1">
          <mxGeometry x="620" y="370" width="120" height="60" as="geometry" />
        </mxCell>
        <mxCell id="ypVziHgd2XEu-LRB_zmH-29" value="" style="group;labelBackgroundColor=none;fontColor=#143642;" vertex="1" connectable="0" parent="1">
          <mxGeometry x="120" y="550" width="640" height="190" as="geometry" />
        </mxCell>
        <mxCell id="ypVziHgd2XEu-LRB_zmH-10" value="Prognosis and diagnosis EV powertrain" style="rounded=0;whiteSpace=wrap;html=1;labelBackgroundColor=none;fillColor=#FAE5C7;strokeColor=#0F8B8D;fontColor=#143642;" vertex="1" parent="ypVziHgd2XEu-LRB_zmH-29">
          <mxGeometry x="260" width="120" height="60" as="geometry" />
        </mxCell>
        <mxCell id="ypVziHgd2XEu-LRB_zmH-20" value="Prognosis and diagnosis EV powertrain" style="rounded=0;whiteSpace=wrap;html=1;fillColor=#FAE5C7;fontColor=#143642;strokeColor=#0F8B8D;labelBackgroundColor=none;" vertex="1" parent="ypVziHgd2XEu-LRB_zmH-29">
          <mxGeometry x="260" width="120" height="60" as="geometry" />
        </mxCell>
        <mxCell id="ypVziHgd2XEu-LRB_zmH-21" value="anomaly detection" style="whiteSpace=wrap;html=1;rounded=0;labelBackgroundColor=none;fillColor=#FAE5C7;strokeColor=#0F8B8D;fontColor=#143642;" vertex="1" parent="ypVziHgd2XEu-LRB_zmH-29">
          <mxGeometry x="160" y="130" width="120" height="60" as="geometry" />
        </mxCell>
        <mxCell id="ypVziHgd2XEu-LRB_zmH-22" value="" style="edgeStyle=orthogonalEdgeStyle;rounded=0;orthogonalLoop=1;jettySize=auto;html=1;labelBackgroundColor=none;strokeColor=#A8201A;fontColor=default;" edge="1" parent="ypVziHgd2XEu-LRB_zmH-29" source="ypVziHgd2XEu-LRB_zmH-20" target="ypVziHgd2XEu-LRB_zmH-21">
          <mxGeometry relative="1" as="geometry" />
        </mxCell>
        <mxCell id="ypVziHgd2XEu-LRB_zmH-23" value="Fault detection and diagnosis" style="whiteSpace=wrap;html=1;rounded=0;labelBackgroundColor=none;fillColor=#FAE5C7;strokeColor=#0F8B8D;fontColor=#143642;" vertex="1" parent="ypVziHgd2XEu-LRB_zmH-29">
          <mxGeometry x="360" y="130" width="120" height="60" as="geometry" />
        </mxCell>
        <mxCell id="ypVziHgd2XEu-LRB_zmH-24" value="" style="edgeStyle=orthogonalEdgeStyle;rounded=0;orthogonalLoop=1;jettySize=auto;html=1;labelBackgroundColor=none;strokeColor=#A8201A;fontColor=default;" edge="1" parent="ypVziHgd2XEu-LRB_zmH-29" source="ypVziHgd2XEu-LRB_zmH-20" target="ypVziHgd2XEu-LRB_zmH-23">
          <mxGeometry relative="1" as="geometry" />
        </mxCell>
        <mxCell id="ypVziHgd2XEu-LRB_zmH-25" value="Prognostic and RUL&amp;nbsp;" style="whiteSpace=wrap;html=1;rounded=0;labelBackgroundColor=none;fillColor=#FAE5C7;strokeColor=#0F8B8D;fontColor=#143642;" vertex="1" parent="ypVziHgd2XEu-LRB_zmH-29">
          <mxGeometry y="130" width="120" height="60" as="geometry" />
        </mxCell>
        <mxCell id="ypVziHgd2XEu-LRB_zmH-26" value="" style="edgeStyle=orthogonalEdgeStyle;rounded=0;orthogonalLoop=1;jettySize=auto;html=1;exitX=0.5;exitY=1;exitDx=0;exitDy=0;labelBackgroundColor=none;strokeColor=#A8201A;fontColor=default;" edge="1" parent="ypVziHgd2XEu-LRB_zmH-29" source="ypVziHgd2XEu-LRB_zmH-20" target="ypVziHgd2XEu-LRB_zmH-25">
          <mxGeometry relative="1" as="geometry" />
        </mxCell>
        <mxCell id="ypVziHgd2XEu-LRB_zmH-27" value="Performance optimization" style="whiteSpace=wrap;html=1;rounded=0;labelBackgroundColor=none;fillColor=#FAE5C7;strokeColor=#0F8B8D;fontColor=#143642;" vertex="1" parent="ypVziHgd2XEu-LRB_zmH-29">
          <mxGeometry x="520" y="130" width="120" height="60" as="geometry" />
        </mxCell>
        <mxCell id="ypVziHgd2XEu-LRB_zmH-28" value="" style="edgeStyle=orthogonalEdgeStyle;rounded=0;orthogonalLoop=1;jettySize=auto;html=1;exitX=0.5;exitY=1;exitDx=0;exitDy=0;labelBackgroundColor=none;strokeColor=#A8201A;fontColor=default;" edge="1" parent="ypVziHgd2XEu-LRB_zmH-29" source="ypVziHgd2XEu-LRB_zmH-20" target="ypVziHgd2XEu-LRB_zmH-27">
          <mxGeometry relative="1" as="geometry" />
        </mxCell>
      </root>
    </mxGraphModel>
  </diagram>
</mxfile>
